<svg xmlns="http://www.w3.org/2000/svg" viewBox="0 0 256 256" width="256" height="256">
  <rect width="256" height="256" fill="#0a0a0a"/>
  <circle cx="128" cy="128" r="118" fill="#111" stroke="#3b82f6" stroke-width="2"/>
  <!-- Cyborg face -->
  <ellipse cx="128" cy="110" rx="48" ry="55" fill="#c0c0c0"/>
  <ellipse cx="128" cy="90" rx="46" ry="40" fill="#d4d4d8"/>
  <!-- Hair -->
  <ellipse cx="128" cy="68" rx="50" ry="28" fill="#a1a1aa"/>
  <rect x="78" y="68" width="18" height="40" rx="4" fill="#a1a1aa"/>
  <rect x="160" y="68" width="18" height="40" rx="4" fill="#a1a1aa"/>
  <!-- Cybernetic eye left -->
  <circle cx="110" cy="108" r="12" fill="#1e1e2e"/>
  <circle cx="110" cy="108" r="8" fill="#3b82f6" opacity="0.9"/>
  <circle cx="110" cy="108" r="4" fill="#60a5fa"/>
  <circle cx="112" cy="106" r="2" fill="white"/>
  <!-- Normal eye right -->
  <ellipse cx="146" cy="108" rx="10" ry="9" fill="#1e1e2e"/>
  <circle cx="146" cy="108" r="6" fill="#64748b"/>
  <circle cx="148" cy="106" r="2" fill="white"/>
  <!-- Cybernetic panel on left face -->
  <rect x="85" y="100" width="20" height="30" rx="2" fill="#374151" stroke="#3b82f6" stroke-width="1"/>
  <line x1="89" y1="107" x2="101" y2="107" stroke="#3b82f6" stroke-width="1"/>
  <line x1="89" y1="112" x2="101" y2="112" stroke="#3b82f6" stroke-width="1" stroke-dasharray="2,2"/>
  <line x1="89" y1="117" x2="101" y2="117" stroke="#60a5fa" stroke-width="1.5"/>
  <!-- Nose -->
  <path d="M126 115 L122 128 L134 128" stroke="#9ca3af" stroke-width="1.5" fill="none"/>
  <!-- Mouth -->
  <path d="M114 138 Q128 145 142 138" stroke="#6b7280" stroke-width="2" fill="none"/>
  <!-- Collar / armor -->
  <rect x="80" y="160" width="96" height="40" rx="4" fill="#1f2937"/>
  <rect x="90" y="160" width="76" height="10" fill="#374151"/>
  <rect x="100" y="155" width="56" height="15" rx="2" fill="#374151" stroke="#3b82f6" stroke-width="1"/>
</svg>
